<svg width="21" height="20" viewBox="0 0 21 20" fill="none" xmlns="http://www.w3.org/2000/svg">
<path d="M11.0245 13.7458L10.3853 14.4289C10.3524 14.4641 10.3197 14.4997 10.2878 14.5345C10.2291 14.5985 10.1726 14.66 10.1203 14.7127L10.1193 14.7137C9.89841 14.9352 9.67751 15.1567 9.45658 15.3783C8.54059 16.2969 7.62398 17.2161 6.70538 18.1333L6.70533 18.1334C6.51697 18.3214 6.43871 18.4729 6.43027 18.6444C6.41655 18.9334 6.60258 19.262 6.93424 19.4227L6.93454 19.4229C7.08617 19.4965 7.2164 19.5116 7.32791 19.4925L11.0245 13.7458ZM11.0245 13.7458L11.6473 14.4237C11.6763 14.4552 11.7025 14.4839 11.7268 14.5105C11.8035 14.5945 11.8616 14.6581 11.9294 14.7263L11.9295 14.7264C12.3503 15.1491 12.771 15.5706 13.1915 15.9917C13.924 16.7254 14.6555 17.4581 15.3845 18.1952C15.635 18.4485 15.6671 18.7156 15.5446 18.9774C15.3875 19.3127 15.0426 19.5083 14.7527 19.4886C14.59 19.4774 14.4418 19.4007 14.2635 19.2211L14.2633 19.2209C13.9738 18.9296 13.6849 18.6424 13.3972 18.3564C12.8121 17.7748 12.2323 17.1985 11.6642 16.604L11.6641 16.6038C11.5311 16.4648 11.2923 16.2467 10.9539 16.2773C10.7925 16.292 10.6662 16.3599 10.5785 16.4215C10.4933 16.4814 10.4185 16.5541 10.3586 16.6158L10.3584 16.6159C9.48767 17.5123 8.60197 18.3957 7.70943 19.2757L11.0245 13.7458ZM11.0723 13.6946L11.0726 13.6943L10.0721 13.59C8.56947 13.4333 7.27658 13.0691 6.18296 12.2138L5.87494 12.6076L6.18347 12.2142C6.14712 12.1857 6.11291 12.1592 6.08049 12.1341C5.96449 12.0442 5.87128 11.9721 5.78392 11.8882L11.0723 13.6946ZM11.0723 13.6946L11.9562 13.5889C12.7895 13.4893 13.5978 13.3427 14.3221 13.0619C15.0929 12.7629 15.7739 12.3398 16.3359 11.763C16.4601 11.6355 16.504 11.5154 16.5089 11.4007C16.5141 11.2768 16.4751 11.1107 16.3481 10.9038L16.3481 10.9037C16.1787 10.6276 15.906 10.5161 15.5793 10.6L11.0723 13.6946ZM5.68548 10.8618L5.68544 10.8619C5.52712 11.0887 5.48957 11.265 5.50235 11.3987C5.51508 11.5319 5.58477 11.6969 5.7838 11.8881L5.68548 10.8618ZM5.68548 10.8618C5.79667 10.7025 5.93057 10.6189 6.07078 10.5873M5.68548 10.8618L6.07078 10.5873M6.90249 10.8372L6.90249 10.8372C6.80671 10.7708 6.7173 10.7164 6.63086 10.6756L6.90249 10.8372ZM6.90249 10.8372L6.90427 10.8384M6.90249 10.8372L6.90427 10.8384M6.90427 10.8384C9.30022 12.4847 12.5874 12.5331 15.0002 10.9101L15.0131 10.9014M6.90427 10.8384L15.0131 10.9014M15.0131 10.9014L15.0254 10.892M15.0131 10.9014L15.0254 10.892M15.0254 10.892C15.2156 10.7462 15.3919 10.6483 15.5793 10.6L15.0254 10.892ZM6.07078 10.5873C6.21473 10.5548 6.40434 10.5688 6.63068 10.6755L6.07078 10.5873Z" fill="#6202EE" stroke="#6202EE"/>
<path d="M13.9784 5.05532V5.0554C13.9839 6.70587 12.6693 8.03358 11.0199 8.03941C11.0198 8.03941 11.0198 8.03941 11.0198 8.03941L11.018 7.53941L13.9784 5.05532ZM13.9784 5.05532C13.9726 3.40552 12.6548 2.08675 11.0058 2.08521L13.9784 5.05532ZM10.9663 9.62314H10.9663C8.47777 9.61466 6.43221 7.54781 6.44673 5.05328L6.44673 5.05321C6.46109 2.52648 8.50774 0.493036 11.024 0.500018L11.024 0.500018C13.541 0.506799 15.5694 2.56596 15.5567 5.12476C15.5438 7.60871 13.4895 9.63184 10.9663 9.62314ZM11.0057 2.08521C9.3425 2.08348 8.01353 3.42578 8.02629 5.09056L11.0057 2.08521Z" fill="#6202EE" stroke="#6202EE"/>
</svg>
