<svg width="21" height="20" viewBox="0 0 21 20" fill="none" xmlns="http://www.w3.org/2000/svg">
<path d="M7.08292 14.2027C5.79017 14.1793 4.66179 13.4737 4.04519 12.4293C4.45491 12.4266 4.85056 12.3694 5.22539 12.2685L5.19409 11.2955C3.78714 11.0124 2.67574 9.90796 2.3815 8.50487C2.78216 8.63462 3.20676 8.71133 3.64653 8.72604L5.39885 8.78463L3.94102 7.81058C2.97448 7.16479 2.33856 6.06187 2.33856 4.81197C2.33856 4.40902 2.40405 4.02245 2.5251 3.6622C4.6159 5.91293 7.54905 7.37144 10.8243 7.53595L11.4871 7.56924L11.3363 6.92295C11.2751 6.66088 11.2431 6.38534 11.2431 6.10174C11.2431 4.1134 12.8563 2.5 14.8461 2.5C15.8838 2.5 16.8181 2.93637 17.4758 3.63796L17.6655 3.84035L17.9376 3.78651C18.3887 3.69726 18.8271 3.5737 19.2504 3.41864C19.0027 3.70131 18.7116 3.94511 18.3873 4.1393L18.7033 5.06477C18.9751 5.03242 19.2429 4.98768 19.5062 4.9311C19.2408 5.18558 18.9571 5.42105 18.6576 5.63471L18.4412 5.78903L18.4481 6.05472L18.4617 6.57931C18.4584 11.7843 14.4996 17.7457 7.28883 17.7457C5.775 17.7457 4.33344 17.4427 3.01793 16.8953C4.65241 16.7027 6.15043 16.0615 7.38227 15.0962L8.48993 14.2282L7.08292 14.2027Z" fill="#6202EE" stroke="#6202EE"/>
</svg>
