<svg width="11" height="20" viewBox="0 0 11 20" fill="none" xmlns="http://www.w3.org/2000/svg">
<path d="M7.17511 6.91544H9.69964L9.68119 7.30452H9.26577H6.67511L7.17511 6.91544ZM9.77397 0.129059L10.1713 0.18071L9.77397 0.129059ZM3.75991 10.1433L3.75988 9.64329H3.25991H1.38908V8.30452H3.25984H3.75984V7.80452V4.60201C3.75984 3.80156 4.00491 3.00621 4.55954 2.41514C5.10671 1.83202 6.00939 1.38998 7.4431 1.38998C7.94231 1.38998 8.39138 1.40932 8.74872 1.43233L8.71886 2.63347C8.3845 2.63172 7.98821 2.63043 7.5788 2.63043C6.68547 2.63043 6.0558 2.90331 5.68132 3.42871C5.33354 3.91663 5.28424 4.52309 5.28424 5.00157V7.80452V8.30452H5.78424H8.74142L8.67773 9.64329H5.78424H5.28424V10.1433V18.61H3.7603L3.75991 10.1433Z" fill="#6202EE" stroke="#6202EE"/>
</svg>
