<svg width="21" height="20" viewBox="0 0 21 20" fill="none" xmlns="http://www.w3.org/2000/svg">
<mask id="path-1-inside-1" fill="white">
<path d="M19.1114 13.8957C18.6763 13.3772 18.1848 12.9142 17.7095 12.4665C17.5424 12.3091 17.3696 12.1463 17.2032 11.9848C17.2033 11.9848 17.2032 11.9847 17.2032 11.9848C16.9794 11.7676 16.8697 11.6134 16.8583 11.4996C16.847 11.3877 16.9239 11.2217 17.1007 10.9763C17.3651 10.6072 17.647 10.2375 17.9196 9.88C18.162 9.56221 18.4125 9.23357 18.6527 8.90307L18.7066 8.82887C19.1751 8.18387 19.6596 7.51693 19.9192 6.70417C19.9934 6.47115 20.0703 6.12631 19.8846 5.82359C19.6989 5.52079 19.3544 5.43105 19.1117 5.38994C18.9932 5.36974 18.8807 5.36807 18.776 5.36807L15.7367 5.36539C15.2112 5.35669 14.8466 5.6044 14.648 6.10184C14.489 6.49912 14.3012 6.95954 14.0837 7.39629C13.6675 8.23946 13.1386 9.21061 12.372 10.0197L12.338 10.0558C12.2858 10.1112 12.2005 10.2018 12.1567 10.2226C12.0737 10.1707 11.9778 9.87382 11.9822 9.71831C11.9823 9.71446 11.9824 9.71065 11.9824 9.70685L11.9797 6.21408C11.9797 6.19632 11.9784 6.17857 11.976 6.16097C11.9079 5.66267 11.775 5.16313 10.982 5.0075C10.9566 5.00249 10.9307 5 10.9049 5H7.74333C7.14852 5 6.83391 5.2709 6.58168 5.56461C6.50868 5.65024 6.31469 5.87759 6.41352 6.15553C6.51352 6.43677 6.81149 6.49291 6.9093 6.51132C7.25384 6.57636 7.432 6.77003 7.48716 7.14027C7.59618 7.85966 7.60954 8.62925 7.52927 9.561C7.50688 9.81116 7.46524 10.0013 7.39806 10.1594C7.37946 10.2032 7.36313 10.2303 7.35173 10.2463C7.33352 10.239 7.3052 10.225 7.26598 10.1983C7.02387 10.0335 6.84141 9.7774 6.66497 9.52977C5.9602 8.54013 5.36738 7.44711 4.85242 6.18777C4.64035 5.67172 4.24167 5.38349 3.73058 5.37603C2.75682 5.35991 1.85623 5.3603 0.978258 5.37728C0.564155 5.38442 0.273762 5.51407 0.115012 5.76267C-0.0439344 6.01174 -0.0381141 6.32931 0.132356 6.7067C1.35096 9.40175 2.45745 11.3623 3.71995 13.0637C4.6089 14.2616 5.50375 15.093 6.53606 15.6804C7.62067 16.2976 8.84388 16.6 10.263 16.6C10.4243 16.6 10.5885 16.5961 10.7549 16.5882C11.6304 16.5485 11.9866 16.2022 12.0255 15.3541C12.0473 14.9059 12.0974 14.5428 12.2714 14.2273C12.3201 14.139 12.375 14.0798 12.4183 14.069C12.4643 14.0576 12.5459 14.0856 12.6367 14.1442C12.8026 14.2513 12.9454 14.3966 13.0629 14.5242C13.182 14.6538 13.3023 14.7877 13.4187 14.9172C13.6665 15.193 13.9227 15.4781 14.1911 15.75C14.7983 16.3656 15.4982 16.6479 16.2723 16.5887L19.0538 16.59C19.0537 16.59 19.0539 16.59 19.0538 16.59C19.0626 16.59 19.0716 16.5897 19.0804 16.5892C19.4012 16.5679 19.6786 16.3913 19.8415 16.1044C20.0376 15.7589 20.0347 15.3214 19.8334 14.9334C19.6234 14.5301 19.351 14.183 19.1114 13.8957ZM19.1477 15.7148C19.1094 15.7823 19.0621 15.7946 19.0376 15.7976L16.2568 15.7963C16.2569 15.7963 16.2567 15.7963 16.2568 15.7963C16.2458 15.7963 16.2345 15.7967 16.2236 15.7977C15.6758 15.843 15.2101 15.6515 14.7598 15.195C14.5044 14.9362 14.2545 14.6581 14.0128 14.3892C14.01 14.3861 14.0072 14.383 14.0043 14.3798C13.8892 14.2517 13.7703 14.1195 13.6509 13.9894C13.4992 13.8246 13.3116 13.6352 13.0707 13.4796C12.7099 13.2467 12.4109 13.2537 12.2237 13.3007C12.0384 13.3471 11.775 13.4796 11.5729 13.8465C11.311 14.3212 11.2532 14.8333 11.2297 15.3171C11.2161 15.613 11.1658 15.6912 11.1448 15.711C11.1173 15.7371 11.0252 15.7828 10.7182 15.7968C9.24252 15.8658 8.00415 15.6029 6.93176 14.9927C5.99887 14.4619 5.18199 13.6993 4.36109 12.5932C3.13354 10.939 2.05346 9.02339 0.859117 6.38195C0.815835 6.28626 0.802476 6.22655 0.798609 6.19457C0.829078 6.18463 0.888609 6.17153 0.992985 6.16963C1.86205 6.15289 2.75323 6.15242 3.71819 6.16843C3.8503 6.17037 4.00073 6.2098 4.11464 6.487C4.65269 7.80282 5.27422 8.94794 6.01485 9.98789C6.21149 10.2639 6.45625 10.6075 6.81598 10.8523C7.14548 11.0767 7.41286 11.066 7.57919 11.0175C7.7456 10.969 7.97654 10.8342 8.13208 10.4679C8.23244 10.2318 8.2931 9.96594 8.32314 9.63004C8.40896 8.63341 8.39372 7.80481 8.27529 7.02325C8.19181 6.4633 7.90111 6.05879 7.44317 5.85222C7.5245 5.81011 7.61614 5.79255 7.74341 5.79255H10.8636C11.0392 5.83171 11.0739 5.87771 11.0858 5.89344C11.1364 5.9603 11.1653 6.11847 11.183 6.24205L11.1856 9.70261C11.1786 10.0344 11.3407 10.7701 11.8926 10.9719C11.8972 10.9735 11.9018 10.9751 11.9063 10.9766C12.4088 11.1399 12.7412 10.7871 12.9196 10.5975L12.9514 10.5639C13.7911 9.67751 14.3566 8.64184 14.7983 7.74692C15.0286 7.28479 15.2236 6.80678 15.3884 6.39473C15.4709 6.18808 15.546 6.15405 15.7252 6.15782C15.7276 6.1579 15.7301 6.1579 15.7325 6.1579L18.7757 6.16058C18.8465 6.16058 18.9204 6.16139 18.9777 6.17115C19.1227 6.1957 19.1824 6.22561 19.2021 6.23801C19.2041 6.26097 19.2037 6.32701 19.1598 6.46486C18.9391 7.15597 18.5125 7.74315 18.0609 8.36484L18.0069 8.43916C17.7741 8.75965 17.5282 9.08209 17.2904 9.39414C17.2886 9.39651 17.2867 9.39888 17.2849 9.40125C17.0088 9.76337 16.7233 10.1378 16.4526 10.5156C15.874 11.3186 15.9248 11.8515 16.647 12.5521C16.8176 12.7178 16.9926 12.8826 17.1618 13.0419L17.1628 13.0429C17.6422 13.4945 18.095 13.9211 18.4991 14.4027C18.7108 14.6565 18.9508 14.9614 19.1257 15.2974C19.217 15.4733 19.1946 15.6322 19.1477 15.7148Z"/>
<path d="M19.1477 15.7148C19.1094 15.7823 19.0621 15.7946 19.0376 15.7976L16.2568 15.7963C16.2458 15.7963 16.2345 15.7967 16.2236 15.7977C15.6758 15.843 15.2101 15.6515 14.7598 15.195C14.5044 14.9362 14.2545 14.6581 14.0128 14.3892L14.0043 14.3798C13.8892 14.2517 13.7703 14.1195 13.6509 13.9894C13.4992 13.8246 13.3116 13.6352 13.0707 13.4796C12.7099 13.2467 12.4109 13.2537 12.2237 13.3007C12.0384 13.3471 11.775 13.4796 11.5729 13.8465C11.311 14.3212 11.2532 14.8333 11.2297 15.3171C11.2161 15.613 11.1658 15.6912 11.1448 15.711C11.1173 15.7371 11.0252 15.7828 10.7182 15.7968C9.24252 15.8658 8.00415 15.6029 6.93176 14.9927C5.99887 14.4619 5.18199 13.6993 4.36109 12.5932C3.13354 10.939 2.05346 9.02339 0.859117 6.38195C0.815835 6.28626 0.802476 6.22655 0.798609 6.19457C0.829078 6.18463 0.888609 6.17153 0.992985 6.16963C1.86205 6.15289 2.75323 6.15242 3.71819 6.16843C3.8503 6.17037 4.00073 6.2098 4.11464 6.487C4.65269 7.80282 5.27422 8.94794 6.01485 9.98789C6.21149 10.2639 6.45625 10.6075 6.81598 10.8523C7.14548 11.0767 7.41286 11.066 7.57919 11.0175C7.7456 10.969 7.97654 10.8342 8.13208 10.4679C8.23244 10.2318 8.2931 9.96594 8.32314 9.63004C8.40896 8.63341 8.39372 7.80481 8.27529 7.02325C8.19181 6.4633 7.90111 6.05879 7.44317 5.85222C7.5245 5.81011 7.61614 5.79255 7.74341 5.79255H10.8636C11.0392 5.83171 11.0739 5.87771 11.0858 5.89344C11.1364 5.9603 11.1653 6.11847 11.183 6.24205L11.1856 9.70261C11.1786 10.0344 11.3407 10.7701 11.8926 10.9719C11.8972 10.9735 11.9018 10.9751 11.9063 10.9766C12.4088 11.1399 12.7412 10.7871 12.9196 10.5975L12.9514 10.5639C13.7911 9.67751 14.3566 8.64184 14.7983 7.74692C15.0286 7.28479 15.2236 6.80678 15.3884 6.39473C15.4709 6.18808 15.546 6.15405 15.7252 6.15782L15.7325 6.1579L18.7757 6.16058C18.8465 6.16058 18.9204 6.16139 18.9777 6.17115C19.1227 6.1957 19.1824 6.22561 19.2021 6.23801C19.2041 6.26097 19.2037 6.32701 19.1598 6.46486C18.9391 7.15597 18.5125 7.74315 18.0609 8.36484L18.0069 8.43916C17.7741 8.75965 17.5282 9.08209 17.2904 9.39414L17.2849 9.40125C17.0088 9.76337 16.7233 10.1378 16.4526 10.5156C15.874 11.3186 15.9248 11.8515 16.647 12.5521C16.8176 12.7178 16.9926 12.8826 17.1618 13.0419L17.1628 13.0429C17.6422 13.4945 18.095 13.9211 18.4991 14.4027C18.7108 14.6565 18.9508 14.9614 19.1257 15.2974C19.217 15.4733 19.1946 15.6322 19.1477 15.7148Z"/>
</mask>
<path d="M19.1114 13.8957C18.6763 13.3772 18.1848 12.9142 17.7095 12.4665C17.5424 12.3091 17.3696 12.1463 17.2032 11.9848C17.2033 11.9848 17.2032 11.9847 17.2032 11.9848C16.9794 11.7676 16.8697 11.6134 16.8583 11.4996C16.847 11.3877 16.9239 11.2217 17.1007 10.9763C17.3651 10.6072 17.647 10.2375 17.9196 9.88C18.162 9.56221 18.4125 9.23357 18.6527 8.90307L18.7066 8.82887C19.1751 8.18387 19.6596 7.51693 19.9192 6.70417C19.9934 6.47115 20.0703 6.12631 19.8846 5.82359C19.6989 5.52079 19.3544 5.43105 19.1117 5.38994C18.9932 5.36974 18.8807 5.36807 18.776 5.36807L15.7367 5.36539C15.2112 5.35669 14.8466 5.6044 14.648 6.10184C14.489 6.49912 14.3012 6.95954 14.0837 7.39629C13.6675 8.23946 13.1386 9.21061 12.372 10.0197L12.338 10.0558C12.2858 10.1112 12.2005 10.2018 12.1567 10.2226C12.0737 10.1707 11.9778 9.87382 11.9822 9.71831C11.9823 9.71446 11.9824 9.71065 11.9824 9.70685L11.9797 6.21408C11.9797 6.19632 11.9784 6.17857 11.976 6.16097C11.9079 5.66267 11.775 5.16313 10.982 5.0075C10.9566 5.00249 10.9307 5 10.9049 5H7.74333C7.14852 5 6.83391 5.2709 6.58168 5.56461C6.50868 5.65024 6.31469 5.87759 6.41352 6.15553C6.51352 6.43677 6.81149 6.49291 6.9093 6.51132C7.25384 6.57636 7.432 6.77003 7.48716 7.14027C7.59618 7.85966 7.60954 8.62925 7.52927 9.561C7.50688 9.81116 7.46524 10.0013 7.39806 10.1594C7.37946 10.2032 7.36313 10.2303 7.35173 10.2463C7.33352 10.239 7.3052 10.225 7.26598 10.1983C7.02387 10.0335 6.84141 9.7774 6.66497 9.52977C5.9602 8.54013 5.36738 7.44711 4.85242 6.18777C4.64035 5.67172 4.24167 5.38349 3.73058 5.37603C2.75682 5.35991 1.85623 5.3603 0.978258 5.37728C0.564155 5.38442 0.273762 5.51407 0.115012 5.76267C-0.0439344 6.01174 -0.0381141 6.32931 0.132356 6.7067C1.35096 9.40175 2.45745 11.3623 3.71995 13.0637C4.6089 14.2616 5.50375 15.093 6.53606 15.6804C7.62067 16.2976 8.84388 16.6 10.263 16.6C10.4243 16.6 10.5885 16.5961 10.7549 16.5882C11.6304 16.5485 11.9866 16.2022 12.0255 15.3541C12.0473 14.9059 12.0974 14.5428 12.2714 14.2273C12.3201 14.139 12.375 14.0798 12.4183 14.069C12.4643 14.0576 12.5459 14.0856 12.6367 14.1442C12.8026 14.2513 12.9454 14.3966 13.0629 14.5242C13.182 14.6538 13.3023 14.7877 13.4187 14.9172C13.6665 15.193 13.9227 15.4781 14.1911 15.75C14.7983 16.3656 15.4982 16.6479 16.2723 16.5887L19.0538 16.59C19.0537 16.59 19.0539 16.59 19.0538 16.59C19.0626 16.59 19.0716 16.5897 19.0804 16.5892C19.4012 16.5679 19.6786 16.3913 19.8415 16.1044C20.0376 15.7589 20.0347 15.3214 19.8334 14.9334C19.6234 14.5301 19.351 14.183 19.1114 13.8957ZM19.1477 15.7148C19.1094 15.7823 19.0621 15.7946 19.0376 15.7976L16.2568 15.7963C16.2569 15.7963 16.2567 15.7963 16.2568 15.7963C16.2458 15.7963 16.2345 15.7967 16.2236 15.7977C15.6758 15.843 15.2101 15.6515 14.7598 15.195C14.5044 14.9362 14.2545 14.6581 14.0128 14.3892C14.01 14.3861 14.0072 14.383 14.0043 14.3798C13.8892 14.2517 13.7703 14.1195 13.6509 13.9894C13.4992 13.8246 13.3116 13.6352 13.0707 13.4796C12.7099 13.2467 12.4109 13.2537 12.2237 13.3007C12.0384 13.3471 11.775 13.4796 11.5729 13.8465C11.311 14.3212 11.2532 14.8333 11.2297 15.3171C11.2161 15.613 11.1658 15.6912 11.1448 15.711C11.1173 15.7371 11.0252 15.7828 10.7182 15.7968C9.24252 15.8658 8.00415 15.6029 6.93176 14.9927C5.99887 14.4619 5.18199 13.6993 4.36109 12.5932C3.13354 10.939 2.05346 9.02339 0.859117 6.38195C0.815835 6.28626 0.802476 6.22655 0.798609 6.19457C0.829078 6.18463 0.888609 6.17153 0.992985 6.16963C1.86205 6.15289 2.75323 6.15242 3.71819 6.16843C3.8503 6.17037 4.00073 6.2098 4.11464 6.487C4.65269 7.80282 5.27422 8.94794 6.01485 9.98789C6.21149 10.2639 6.45625 10.6075 6.81598 10.8523C7.14548 11.0767 7.41286 11.066 7.57919 11.0175C7.7456 10.969 7.97654 10.8342 8.13208 10.4679C8.23244 10.2318 8.2931 9.96594 8.32314 9.63004C8.40896 8.63341 8.39372 7.80481 8.27529 7.02325C8.19181 6.4633 7.90111 6.05879 7.44317 5.85222C7.5245 5.81011 7.61614 5.79255 7.74341 5.79255H10.8636C11.0392 5.83171 11.0739 5.87771 11.0858 5.89344C11.1364 5.9603 11.1653 6.11847 11.183 6.24205L11.1856 9.70261C11.1786 10.0344 11.3407 10.7701 11.8926 10.9719C11.8972 10.9735 11.9018 10.9751 11.9063 10.9766C12.4088 11.1399 12.7412 10.7871 12.9196 10.5975L12.9514 10.5639C13.7911 9.67751 14.3566 8.64184 14.7983 7.74692C15.0286 7.28479 15.2236 6.80678 15.3884 6.39473C15.4709 6.18808 15.546 6.15405 15.7252 6.15782C15.7276 6.1579 15.7301 6.1579 15.7325 6.1579L18.7757 6.16058C18.8465 6.16058 18.9204 6.16139 18.9777 6.17115C19.1227 6.1957 19.1824 6.22561 19.2021 6.23801C19.2041 6.26097 19.2037 6.32701 19.1598 6.46486C18.9391 7.15597 18.5125 7.74315 18.0609 8.36484L18.0069 8.43916C17.7741 8.75965 17.5282 9.08209 17.2904 9.39414C17.2886 9.39651 17.2867 9.39888 17.2849 9.40125C17.0088 9.76337 16.7233 10.1378 16.4526 10.5156C15.874 11.3186 15.9248 11.8515 16.647 12.5521C16.8176 12.7178 16.9926 12.8826 17.1618 13.0419L17.1628 13.0429C17.6422 13.4945 18.095 13.9211 18.4991 14.4027C18.7108 14.6565 18.9508 14.9614 19.1257 15.2974C19.217 15.4733 19.1946 15.6322 19.1477 15.7148Z" fill="#6202EE"/>
<path d="M19.1477 15.7148C19.1094 15.7823 19.0621 15.7946 19.0376 15.7976L16.2568 15.7963C16.2458 15.7963 16.2345 15.7967 16.2236 15.7977C15.6758 15.843 15.2101 15.6515 14.7598 15.195C14.5044 14.9362 14.2545 14.6581 14.0128 14.3892L14.0043 14.3798C13.8892 14.2517 13.7703 14.1195 13.6509 13.9894C13.4992 13.8246 13.3116 13.6352 13.0707 13.4796C12.7099 13.2467 12.4109 13.2537 12.2237 13.3007C12.0384 13.3471 11.775 13.4796 11.5729 13.8465C11.311 14.3212 11.2532 14.8333 11.2297 15.3171C11.2161 15.613 11.1658 15.6912 11.1448 15.711C11.1173 15.7371 11.0252 15.7828 10.7182 15.7968C9.24252 15.8658 8.00415 15.6029 6.93176 14.9927C5.99887 14.4619 5.18199 13.6993 4.36109 12.5932C3.13354 10.939 2.05346 9.02339 0.859117 6.38195C0.815835 6.28626 0.802476 6.22655 0.798609 6.19457C0.829078 6.18463 0.888609 6.17153 0.992985 6.16963C1.86205 6.15289 2.75323 6.15242 3.71819 6.16843C3.8503 6.17037 4.00073 6.2098 4.11464 6.487C4.65269 7.80282 5.27422 8.94794 6.01485 9.98789C6.21149 10.2639 6.45625 10.6075 6.81598 10.8523C7.14548 11.0767 7.41286 11.066 7.57919 11.0175C7.7456 10.969 7.97654 10.8342 8.13208 10.4679C8.23244 10.2318 8.2931 9.96594 8.32314 9.63004C8.40896 8.63341 8.39372 7.80481 8.27529 7.02325C8.19181 6.4633 7.90111 6.05879 7.44317 5.85222C7.5245 5.81011 7.61614 5.79255 7.74341 5.79255H10.8636C11.0392 5.83171 11.0739 5.87771 11.0858 5.89344C11.1364 5.9603 11.1653 6.11847 11.183 6.24205L11.1856 9.70261C11.1786 10.0344 11.3407 10.7701 11.8926 10.9719C11.8972 10.9735 11.9018 10.9751 11.9063 10.9766C12.4088 11.1399 12.7412 10.7871 12.9196 10.5975L12.9514 10.5639C13.7911 9.67751 14.3566 8.64184 14.7983 7.74692C15.0286 7.28479 15.2236 6.80678 15.3884 6.39473C15.4709 6.18808 15.546 6.15405 15.7252 6.15782L15.7325 6.1579L18.7757 6.16058C18.8465 6.16058 18.9204 6.16139 18.9777 6.17115C19.1227 6.1957 19.1824 6.22561 19.2021 6.23801C19.2041 6.26097 19.2037 6.32701 19.1598 6.46486C18.9391 7.15597 18.5125 7.74315 18.0609 8.36484L18.0069 8.43916C17.7741 8.75965 17.5282 9.08209 17.2904 9.39414L17.2849 9.40125C17.0088 9.76337 16.7233 10.1378 16.4526 10.5156C15.874 11.3186 15.9248 11.8515 16.647 12.5521C16.8176 12.7178 16.9926 12.8826 17.1618 13.0419L17.1628 13.0429C17.6422 13.4945 18.095 13.9211 18.4991 14.4027C18.7108 14.6565 18.9508 14.9614 19.1257 15.2974C19.217 15.4733 19.1946 15.6322 19.1477 15.7148Z" fill="#6202EE"/>
<path d="M19.1477 15.7148L19.5825 15.9616L19.5826 15.9615L19.1477 15.7148ZM19.0376 15.7976L19.0374 16.2976L19.0677 16.2976L19.0977 16.294L19.0376 15.7976ZM16.2568 15.7963L16.257 15.2963H16.2568V15.7963ZM16.2236 15.7977L16.2649 16.296L16.2663 16.2958L16.2236 15.7977ZM14.7598 15.195L15.1158 14.8439L15.1157 14.8438L14.7598 15.195ZM13.6509 13.9894L14.0191 13.6512L14.0188 13.6508L13.6509 13.9894ZM13.0707 13.4796L13.3419 13.0596L13.3418 13.0595L13.0707 13.4796ZM12.2237 13.3007L12.3452 13.7857L12.3452 13.7857L12.2237 13.3007ZM11.5729 13.8465L12.0107 14.088L12.0108 14.0878L11.5729 13.8465ZM11.2297 15.3171L10.7303 15.2928L10.7302 15.2942L11.2297 15.3171ZM11.1448 15.711L10.8014 15.3476L10.8013 15.3477L11.1448 15.711ZM10.7182 15.7968L10.6955 15.2973L10.6948 15.2973L10.7182 15.7968ZM6.93176 14.9927L6.68448 15.4273L6.68448 15.4273L6.93176 14.9927ZM4.36109 12.5932L3.95956 12.8912L3.95958 12.8912L4.36109 12.5932ZM0.859117 6.38195L1.31471 6.17595L1.31468 6.17589L0.859117 6.38195ZM0.798609 6.19457L0.643455 5.71926L0.252895 5.84674L0.302226 6.25461L0.798609 6.19457ZM0.992985 6.16963L1.0021 6.66955L1.00262 6.66954L0.992985 6.16963ZM3.71819 6.16843L3.7099 6.66836L3.71084 6.66837L3.71819 6.16843ZM4.11464 6.487L4.57744 6.29776L4.57712 6.29696L4.11464 6.487ZM6.01485 9.98789L5.60757 10.2779L5.60761 10.278L6.01485 9.98789ZM6.81598 10.8523L7.09743 10.439L7.09728 10.4389L6.81598 10.8523ZM7.57919 11.0175L7.71912 11.4975L7.71916 11.4975L7.57919 11.0175ZM8.13208 10.4679L7.67193 10.2723L7.67186 10.2724L8.13208 10.4679ZM8.32314 9.63004L8.82115 9.67458L8.82129 9.67294L8.32314 9.63004ZM8.27529 7.02325L7.78075 7.09698L7.78093 7.09817L8.27529 7.02325ZM7.44317 5.85222L7.21326 5.40822L6.29593 5.88323L7.23758 6.308L7.44317 5.85222ZM10.8636 5.79255L10.9725 5.30454L10.9187 5.29255H10.8636V5.79255ZM11.0858 5.89344L11.4847 5.59191L11.4845 5.59161L11.0858 5.89344ZM11.183 6.24205L11.683 6.24166L11.6829 6.20632L11.6779 6.17133L11.183 6.24205ZM11.1856 9.70261L11.6856 9.71321L11.6856 9.70223L11.1856 9.70261ZM11.8926 10.9719L12.0656 10.5027L12.0643 10.5022L11.8926 10.9719ZM11.9063 10.9766L12.0609 10.501L12.06 10.5008L11.9063 10.9766ZM12.9196 10.5975L12.5563 10.2541L12.5556 10.2548L12.9196 10.5975ZM12.9514 10.5639L12.5885 10.22L12.588 10.2205L12.9514 10.5639ZM14.7983 7.74692L14.3508 7.52395L14.35 7.5256L14.7983 7.74692ZM15.3884 6.39473L15.8527 6.58049L15.8528 6.58012L15.3884 6.39473ZM18.7757 6.16058L18.7753 6.66058H18.7757V6.16058ZM18.9777 6.17115L18.8938 6.66406L18.8942 6.66413L18.9777 6.17115ZM19.2021 6.23801L19.7002 6.19395L19.6783 5.94696L19.4685 5.81487L19.2021 6.23801ZM19.1598 6.46486L19.6361 6.61699L19.6363 6.61636L19.1598 6.46486ZM18.0609 8.36484L17.6564 8.07098L17.6562 8.07112L18.0609 8.36484ZM18.0069 8.43916L18.4114 8.73307L18.4116 8.73287L18.0069 8.43916ZM16.4526 10.5156L16.8583 10.808L16.8591 10.8068L16.4526 10.5156ZM16.647 12.5521L16.9953 12.1933L16.9951 12.1932L16.647 12.5521ZM17.1618 13.0419L16.819 13.4059L16.819 13.406L17.1618 13.0419ZM18.4991 14.4027L18.8831 14.0824L18.8821 14.0813L18.4991 14.4027ZM19.1257 15.2974L19.5696 15.0671L19.5692 15.0665L19.1257 15.2974ZM17.1628 13.0429L17.5057 12.679L17.5056 12.6789L17.1628 13.0429ZM18.7129 15.4679C18.7326 15.4332 18.7696 15.3883 18.8288 15.3525C18.8867 15.3175 18.9423 15.3055 18.9776 15.3012L19.0977 16.294C19.2458 16.2761 19.4505 16.1942 19.5825 15.9616L18.7129 15.4679ZM19.0379 15.2976L16.257 15.2963L16.2565 16.2963L19.0374 16.2976L19.0379 15.2976ZM16.2568 15.2963C16.2333 15.2963 16.2077 15.2972 16.181 15.2995L16.2663 16.2958C16.2614 16.2963 16.2583 16.2963 16.2568 16.2963V15.2963ZM16.1824 15.2994C15.8074 15.3304 15.4812 15.2143 15.1158 14.8439L14.4039 15.5461C14.9391 16.0887 15.5442 16.3556 16.2649 16.296L16.1824 15.2994ZM15.1157 14.8438C14.8699 14.5947 14.6277 14.3255 14.3847 14.055L13.6409 14.7234C13.8812 14.9908 14.1389 15.2777 14.4039 15.5462L15.1157 14.8438ZM14.0188 13.6508C13.8587 13.4769 13.6369 13.2501 13.3419 13.0596L12.7994 13.8996C12.9864 14.0204 13.1397 14.1724 13.283 14.3281L14.0188 13.6508ZM13.3418 13.0595C12.8558 12.7458 12.4129 12.7378 12.1021 12.8157L12.3452 13.7857C12.4089 13.7697 12.5639 13.7476 12.7995 13.8997L13.3418 13.0595ZM12.1021 12.8157C11.7951 12.8926 11.4103 13.1054 11.135 13.6052L12.0108 14.0878C12.1397 13.8538 12.2817 13.8016 12.3452 13.7857L12.1021 12.8157ZM11.1351 13.605C10.8152 14.1848 10.7545 14.794 10.7303 15.2928L11.7291 15.3414C11.7519 14.8726 11.8068 14.4576 12.0107 14.088L11.1351 13.605ZM10.7302 15.2942C10.7274 15.3554 10.723 15.3998 10.7186 15.4308C10.7142 15.462 10.7102 15.4769 10.7094 15.4799C10.7084 15.4832 10.7119 15.4698 10.7241 15.4469C10.7364 15.4239 10.7602 15.3865 10.8014 15.3476L11.4881 16.0745C11.5888 15.9794 11.6407 15.86 11.6707 15.7553C11.702 15.646 11.7214 15.5106 11.7292 15.3401L10.7302 15.2942ZM10.8013 15.3477C10.8416 15.3096 10.8781 15.2899 10.8962 15.2813C10.9146 15.2726 10.9227 15.2714 10.9134 15.2738C10.8931 15.2789 10.8299 15.2912 10.6955 15.2973L10.7408 16.2963C10.9134 16.2884 11.0498 16.2708 11.1592 16.2431C11.2607 16.2173 11.3853 16.1717 11.4882 16.0744L10.8013 15.3477ZM10.6948 15.2973C9.2948 15.3628 8.15415 15.113 7.17905 14.5581L6.68448 15.4273C7.85415 16.0929 9.19024 16.3688 10.7415 16.2962L10.6948 15.2973ZM7.17905 14.5582C6.321 14.0699 5.5534 13.3608 4.76259 12.2953L3.95958 12.8912C4.81058 14.0379 5.67674 14.8538 6.68448 15.4273L7.17905 14.5582ZM4.76261 12.2953C3.56295 10.6786 2.49979 8.79692 1.31471 6.17595L0.403524 6.58795C1.60712 9.24986 2.70413 11.1994 3.95956 12.8912L4.76261 12.2953ZM1.31468 6.17589C1.28708 6.11486 1.29139 6.10474 1.29499 6.13454L0.302226 6.25461C0.313564 6.34835 0.344594 6.45766 0.403552 6.58801L1.31468 6.17589ZM0.953763 6.66989C0.926098 6.67892 0.934356 6.67078 1.0021 6.66955L0.983867 5.66971C0.842862 5.67229 0.732057 5.69033 0.643455 5.71926L0.953763 6.66989ZM1.00262 6.66954C1.86514 6.65292 2.75031 6.65244 3.7099 6.66836L3.72649 5.6685C2.75615 5.6524 1.85896 5.65285 0.983353 5.66972L1.00262 6.66954ZM3.71084 6.66837C3.72119 6.66852 3.71591 6.66931 3.70276 6.66614C3.68762 6.66249 3.66821 6.65515 3.64939 6.64283C3.63088 6.63071 3.62314 6.62045 3.62391 6.62147C3.62555 6.62364 3.63655 6.63903 3.65216 6.67704L4.57712 6.29696C4.4945 6.09591 4.37417 5.92207 4.1971 5.80616C4.01785 5.68882 3.8398 5.67016 3.72554 5.66848L3.71084 6.66837ZM3.65184 6.67624C4.20283 8.02372 4.84226 9.20333 5.60757 10.2779L6.42212 9.69784C5.70618 8.69256 5.10255 7.58193 4.57744 6.29776L3.65184 6.67624ZM5.60761 10.278C5.79874 10.5463 6.0905 10.9634 6.53469 11.2657L7.09728 10.4389C6.82201 10.2516 6.62424 9.98156 6.42208 9.69778L5.60761 10.278ZM6.53453 11.2656C6.99251 11.5775 7.41537 11.5861 7.71912 11.4975L7.43926 10.5375C7.41684 10.544 7.38169 10.5501 7.33289 10.5428C7.28464 10.5355 7.20548 10.5126 7.09743 10.439L6.53453 11.2656ZM7.71916 11.4975C8.02341 11.4088 8.37563 11.1735 8.5923 10.6633L7.67186 10.2724C7.62104 10.3921 7.56714 10.4535 7.53084 10.4852C7.4941 10.5173 7.46152 10.531 7.43922 10.5375L7.71916 11.4975ZM8.59224 10.6635C8.71827 10.367 8.78783 10.0472 8.82115 9.67457L7.82513 9.5855C7.79837 9.88468 7.7466 10.0966 7.67193 10.2723L8.59224 10.6635ZM8.82129 9.67294C8.90965 8.64685 8.8953 7.77755 8.76964 6.94834L7.78093 7.09817C7.89215 7.83206 7.90827 8.61996 7.82498 9.58714L8.82129 9.67294ZM8.76982 6.94953C8.66453 6.24322 8.28083 5.68156 7.64877 5.39645L7.23758 6.308C7.52138 6.43602 7.71909 6.68339 7.78075 7.09698L8.76982 6.94953ZM7.67309 6.29623C7.66878 6.29846 7.66673 6.29834 7.67275 6.29716C7.68108 6.29551 7.70182 6.29255 7.74341 6.29255V5.29255C7.56928 5.29255 7.39017 5.31661 7.21326 5.40822L7.67309 6.29623ZM7.74341 6.29255H10.8636V5.29255H7.74341V6.29255ZM10.7548 6.28055C10.8121 6.29334 10.8131 6.30024 10.788 6.28587C10.7737 6.27772 10.7531 6.26392 10.7304 6.24276C10.7191 6.23231 10.7091 6.22171 10.7004 6.21154C10.6921 6.20187 10.686 6.19368 10.6872 6.19528L11.4845 5.59161C11.45 5.54614 11.3903 5.47832 11.2842 5.41769C11.1948 5.3666 11.0907 5.33092 10.9725 5.30454L10.7548 6.28055ZM10.687 6.19497C10.6723 6.17551 10.6636 6.15987 10.6595 6.15197C10.6553 6.14367 10.6534 6.13878 10.6534 6.13873C10.6533 6.13847 10.6542 6.14073 10.6558 6.14603C10.6573 6.15123 10.6593 6.15821 10.6615 6.16713C10.6711 6.20582 10.68 6.25658 10.688 6.31277L11.6779 6.17133C11.6683 6.10394 11.6538 6.01383 11.632 5.92582C11.615 5.85759 11.5764 5.71318 11.4847 5.59191L10.687 6.19497ZM10.683 6.24243L10.6856 9.703L11.6856 9.70223L11.683 6.24166L10.683 6.24243ZM10.6857 9.69202C10.6807 9.92709 10.7324 10.2657 10.8708 10.5848C11.0089 10.9034 11.2671 11.2756 11.721 11.4415L12.0643 10.5022C11.9662 10.4664 11.8674 10.3698 11.7883 10.1871C11.7093 10.005 11.6835 9.80987 11.6855 9.71321L10.6857 9.69202ZM11.7197 11.441C11.7321 11.4456 11.7433 11.4493 11.7526 11.4523L12.06 10.5008C12.0602 10.5008 12.0623 10.5015 12.0656 10.5027L11.7197 11.441ZM11.7518 11.4521C12.586 11.7232 13.1311 11.1023 13.2837 10.9403L12.5556 10.2548C12.4623 10.3539 12.3844 10.4319 12.2956 10.4801C12.2266 10.5177 12.1601 10.5333 12.0609 10.501L11.7518 11.4521ZM13.283 10.941L13.3148 10.9073L12.588 10.2205L12.5563 10.2541L13.283 10.941ZM13.3144 10.9078C14.2076 9.96494 14.7998 8.87361 15.2467 7.96824L14.35 7.5256C13.9134 8.41007 13.3747 9.39009 12.5885 10.22L13.3144 10.9078ZM15.2459 7.96989C15.486 7.48784 15.6875 6.99314 15.8527 6.58049L14.9242 6.20897C14.7596 6.62042 14.5711 7.08175 14.3508 7.52395L15.2459 7.96989ZM15.8528 6.58012C15.8666 6.54547 15.8719 6.53952 15.8668 6.54716C15.8596 6.55801 15.8373 6.5875 15.7954 6.61507C15.7528 6.64311 15.714 6.65333 15.6951 6.65664C15.6816 6.65901 15.6825 6.65703 15.7147 6.65771L15.7357 5.65793C15.6318 5.65575 15.4332 5.65634 15.2457 5.77967C15.0611 5.90117 14.9744 6.08342 14.9241 6.20934L15.8528 6.58012ZM15.7321 6.6579L18.7753 6.66058L18.7762 5.66058L15.733 5.6579L15.7321 6.6579ZM18.7757 6.66058C18.8104 6.66058 18.8377 6.66081 18.8611 6.66178C18.8857 6.6628 18.8949 6.66424 18.8938 6.66406L19.0616 5.67823C18.9554 5.66017 18.8385 5.66058 18.7757 5.66058V6.66058ZM18.8942 6.66413C18.9455 6.67281 18.97 6.6805 18.9757 6.68244C18.9815 6.68443 18.9647 6.67941 18.9357 6.66115L19.4685 5.81487C19.3739 5.75536 19.2444 5.7092 19.0612 5.67816L18.8942 6.66413ZM18.704 6.28207C18.7011 6.24843 18.7041 6.23115 18.7034 6.23616C18.7027 6.2412 18.6986 6.2654 18.6833 6.31335L19.6363 6.61636C19.6924 6.44012 19.7099 6.30456 19.7002 6.19395L18.704 6.28207ZM18.6835 6.31273C18.4915 6.91398 18.1171 7.43667 17.6564 8.07098L18.4654 8.6587C18.9079 8.04963 19.3867 7.39796 19.6361 6.61699L18.6835 6.31273ZM17.6562 8.07112L17.6023 8.14544L18.4116 8.73287L18.4655 8.65855L17.6562 8.07112ZM16.8874 9.09804C16.6119 9.45921 16.3219 9.83952 16.0462 10.2245L16.8591 10.8068C17.1247 10.436 17.4056 10.0675 17.6825 9.70446L16.8874 9.09804ZM16.047 10.2233C15.7312 10.6616 15.5165 11.1192 15.5643 11.6198C15.6118 12.1179 15.9075 12.5313 16.2988 12.9109L16.9951 12.1932C16.6643 11.8723 16.5735 11.6689 16.5597 11.5248C16.5462 11.383 16.5954 11.1727 16.8583 10.808L16.047 10.2233ZM16.2987 12.9108C16.4725 13.0796 16.6501 13.2469 16.819 13.4059L17.5046 12.6779C17.335 12.5182 17.1628 12.356 16.9953 12.1933L16.2987 12.9108ZM18.1151 14.7229C18.3231 14.9723 18.5336 15.2428 18.6822 15.5283L19.5692 15.0665C19.368 14.68 19.0985 14.3408 18.8831 14.0824L18.1151 14.7229ZM18.6819 15.5277C18.6908 15.5448 18.6885 15.5495 18.6885 15.5407C18.6885 15.537 18.6889 15.5297 18.6916 15.519C18.6941 15.5089 18.6997 15.4911 18.7129 15.468L19.5826 15.9615C19.7197 15.7199 19.7323 15.3809 19.5695 15.0671L18.6819 15.5277ZM14.3762 14.0456C14.2614 13.9178 14.1407 13.7835 14.0191 13.6512L13.2827 14.3277C13.4 14.4554 13.517 14.5856 13.6325 14.7141L14.3762 14.0456ZM17.6024 8.14524C17.3735 8.4603 17.1312 8.77816 16.8927 9.09101L17.688 9.69727C17.9253 9.38602 18.1746 9.059 18.4114 8.73307L17.6024 8.14524ZM16.819 13.406L16.8201 13.407L17.5056 12.6789L17.5045 12.6779L16.819 13.406ZM16.82 13.4069C17.303 13.8619 17.734 14.2687 18.1161 14.7241L18.8821 14.0813C18.456 13.5734 17.9813 13.127 17.5057 12.679L16.82 13.4069ZM19.1114 13.8957L19.8793 13.2552L19.8774 13.253L19.1114 13.8957ZM17.7095 12.4665L17.0237 13.1943L17.0238 13.1944L17.7095 12.4665ZM16.8583 11.4996L15.8633 11.5996L16.8583 11.4996ZM17.1007 10.9763L17.912 11.5609L17.9136 11.5587L17.1007 10.9763ZM17.9196 9.88L18.7148 10.4864L18.7148 10.4864L17.9196 9.88ZM18.6527 8.90307L19.4617 9.49091L19.4617 9.49082L18.6527 8.90307ZM18.7066 8.82887L19.5156 9.41661L19.5156 9.4166L18.7066 8.82887ZM19.9192 6.70417L20.8718 7.00845L20.8721 7.00737L19.9192 6.70417ZM19.8846 5.82359L20.737 5.30069L20.737 5.30063L19.8846 5.82359ZM19.1117 5.38994L18.9437 6.37573L18.9447 6.37591L19.1117 5.38994ZM18.776 5.36807L18.7751 6.36807H18.776V5.36807ZM15.7367 5.36539L15.7201 6.36525L15.7279 6.36538L15.7358 6.36539L15.7367 5.36539ZM14.648 6.10184L15.5764 6.47337L15.5766 6.47274L14.648 6.10184ZM14.0837 7.39629L13.1886 6.95045L13.187 6.95366L14.0837 7.39629ZM12.372 10.0197L11.6461 9.332L11.6451 9.33299L12.372 10.0197ZM12.338 10.0558L11.6111 9.36905L11.6101 9.37012L12.338 10.0558ZM12.1567 10.2226L11.6267 11.0706L12.091 11.3607L12.5855 11.126L12.1567 10.2226ZM11.9822 9.71831L10.9827 9.68785L10.9826 9.69019L11.9822 9.71831ZM11.9824 9.70685H12.9824V9.70607L11.9824 9.70685ZM11.9797 6.21408H10.9797V6.21485L11.9797 6.21408ZM11.976 6.16097L12.967 6.0268L12.9668 6.02543L11.976 6.16097ZM10.982 5.0075L10.7887 5.98863L10.7894 5.98878L10.982 5.0075ZM6.58168 5.56461L5.82303 4.91311L5.82074 4.9158L6.58168 5.56461ZM6.41352 6.15553L7.35573 5.8205L7.35573 5.8205L6.41352 6.15553ZM6.9093 6.51132L7.09479 5.52867L7.09432 5.52859L6.9093 6.51132ZM7.48716 7.14027L6.49807 7.28762L6.49845 7.29011L7.48716 7.14027ZM7.52927 9.561L8.52529 9.65012L8.52558 9.64684L7.52927 9.561ZM7.39806 10.1594L6.4777 9.76834L6.47761 9.76853L7.39806 10.1594ZM7.35173 10.2463L6.97934 11.1744L7.70866 11.467L8.16544 10.8276L7.35173 10.2463ZM7.26598 10.1983L7.8286 9.37159L7.8286 9.37158L7.26598 10.1983ZM6.66497 9.52977L5.85041 10.1099L5.85056 10.1101L6.66497 9.52977ZM4.85242 6.18777L5.77802 5.80928L5.77736 5.80767L4.85242 6.18777ZM3.73058 5.37603L3.71402 6.3759L3.71598 6.37593L3.73058 5.37603ZM0.978258 5.37728L0.995518 6.37713L0.997592 6.37709L0.978258 5.37728ZM0.115012 5.76267L-0.727807 5.22447L-0.727964 5.22472L0.115012 5.76267ZM0.132356 6.7067L-0.778984 7.11835L-0.778827 7.1187L0.132356 6.7067ZM3.71995 13.0637L2.91689 13.6596L2.91693 13.6597L3.71995 13.0637ZM6.53606 15.6804L6.04149 16.5496L6.04152 16.5496L6.53606 15.6804ZM10.263 16.6V15.6H10.2629L10.263 16.6ZM10.7549 16.5882L10.7096 15.5892L10.7075 15.5893L10.7549 16.5882ZM12.0255 15.3541L11.0266 15.3055L11.0265 15.3083L12.0255 15.3541ZM12.2714 14.2273L13.147 14.7103L13.1472 14.71L12.2714 14.2273ZM12.4183 14.069L12.1774 13.0984L12.1754 13.0989L12.4183 14.069ZM12.6367 14.1442L12.094 14.9841L12.0941 14.9842L12.6367 14.1442ZM13.0629 14.5242L13.7994 13.8478L13.7985 13.8468L13.0629 14.5242ZM13.4187 14.9172L14.1625 14.2488L14.1623 14.2486L13.4187 14.9172ZM14.1911 15.75L14.9031 15.0478L14.9028 15.0475L14.1911 15.75ZM16.2723 16.5887L16.2728 15.5887L16.2344 15.5887L16.1962 15.5916L16.2723 16.5887ZM19.0804 16.5892L19.1463 17.587L19.1465 17.587L19.0804 16.5892ZM19.8415 16.1044L20.7111 16.5982L20.7111 16.5981L19.8415 16.1044ZM19.8334 14.9334L20.7211 14.4729L20.7204 14.4716L19.8334 14.9334ZM14.0128 14.3892L13.269 15.0577L14.7565 13.7208L14.0128 14.3892ZM15.7252 6.15782L15.7357 5.15788L15.6936 7.15732L15.7252 6.15782ZM15.7325 6.1579V7.1579L15.7431 5.15795L15.7325 6.1579ZM17.2849 9.40125L16.4896 8.79503L18.0802 10.0075L17.2849 9.40125ZM14.0043 14.3798L14.7481 13.7114L13.2606 15.0483L14.0043 14.3798ZM17.2904 9.39414L18.0857 10.0004L16.4951 8.78788L17.2904 9.39414ZM19.8774 13.253C19.3985 12.6822 18.8638 12.18 18.3951 11.7385L17.0238 13.1944C17.5059 13.6485 17.9541 14.0722 18.3453 14.5385L19.8774 13.253ZM18.3952 11.7387C18.2271 11.5802 18.0599 11.4227 17.8998 11.2673L16.5066 12.7022C16.6794 12.87 16.8578 13.038 17.0237 13.1943L18.3952 11.7387ZM17.9084 11.2757C17.9084 11.2757 17.9084 11.2757 17.9084 11.2757C17.9084 11.2757 17.9084 11.2757 17.9084 11.2757C17.9084 11.2757 17.9084 11.2757 17.9084 11.2757C17.9084 11.2757 17.9084 11.2758 17.9084 11.2757C17.9084 11.2757 17.9084 11.2757 17.9084 11.2757V11.2757C17.9084 11.2757 17.9084 11.2757 17.9084 11.2757C17.9084 11.2757 17.9084 11.2757 17.9084 11.2757V11.2757C17.9084 11.2757 17.9084 11.2757 17.9084 11.2757C17.9084 11.2757 17.9084 11.2757 17.9084 11.2757C16.4942 11.2796 16.498 12.6938 16.498 12.6938C16.498 12.6938 16.498 12.6938 16.498 12.6938C16.498 12.6938 16.498 12.6938 16.498 12.6938C16.498 12.6938 16.498 12.6938 16.498 12.6938C16.498 12.6938 16.498 12.6938 16.498 12.6938C16.498 12.6938 16.498 12.6938 16.498 12.6938C16.498 12.6938 16.498 12.6938 16.498 12.6938C16.4981 12.6938 16.498 12.6938 16.498 12.6938C16.498 12.6938 16.498 12.6938 16.498 12.6938C16.498 12.6938 16.498 12.6938 16.498 12.6938C16.498 12.6938 16.498 12.6938 16.498 12.6938C16.498 12.6938 16.498 12.6938 16.498 12.6938V12.6938C16.498 12.6938 16.498 12.6938 16.498 12.6938C16.498 12.6938 16.498 12.6938 16.498 12.6938C16.4981 12.6938 16.498 12.6938 16.498 12.6938C16.498 12.6938 16.498 12.6938 16.498 12.6938C16.4981 12.6938 16.498 12.6938 16.498 12.6938C16.4981 12.6938 16.498 12.6938 16.498 12.6938C16.4981 12.6938 16.498 12.6938 16.4981 12.6938C16.4981 12.6938 16.4981 12.6938 16.4981 12.6938C16.4981 12.6938 16.4981 12.6938 16.4981 12.6938C16.4981 12.6938 16.4981 12.6938 16.4981 12.6938C16.4981 12.6938 16.4981 12.6938 16.4981 12.6938C16.4981 12.6938 16.4981 12.6938 16.4981 12.6938C16.4981 12.6938 16.4981 12.6938 16.4981 12.6938C16.4981 12.6938 16.4981 12.6938 16.4981 12.6938C16.4981 12.6938 16.498 12.6938 16.4981 12.6938C16.4981 12.6938 16.4981 12.6938 16.4981 12.6938C16.4981 12.6938 16.4981 12.6938 16.4981 12.6938C16.4981 12.6938 16.4981 12.6938 16.4981 12.6938C16.4981 12.6938 16.4981 12.6938 16.4981 12.6938C16.4981 12.6938 16.4981 12.6938 16.4981 12.6938C16.4981 12.6938 16.4942 11.2796 17.9084 11.2757C17.9084 11.2757 17.9084 11.2757 17.9084 11.2757C17.9084 11.2757 17.9084 11.2757 17.9084 11.2757C17.9084 11.2757 17.9084 11.2757 17.9084 11.2757C17.9084 11.2757 17.9084 11.2757 17.9084 11.2757C17.9084 11.2757 17.9084 11.2757 17.9084 11.2757L17.9084 11.2757C17.9084 11.2757 17.9084 11.2757 17.9084 11.2757C17.9084 11.2757 17.9084 11.2757 17.9084 11.2757C17.9084 11.2757 17.9084 11.2757 17.9084 11.2757H17.9084C17.9084 11.2757 17.9084 11.2757 17.9084 11.2757C17.9084 11.2757 17.9084 11.2757 17.9084 11.2757C17.9084 11.2757 17.9084 11.2758 17.9084 11.2757L16.498 12.6938C16.498 12.6938 16.498 12.6938 16.498 12.6938C16.498 12.6938 16.498 12.6938 16.498 12.6938C16.4981 12.6938 16.498 12.6938 16.498 12.6938C16.4981 12.6938 16.498 12.6938 16.4981 12.6938C16.4981 12.6938 16.498 12.6938 16.4981 12.6938V12.6938C16.4981 12.6938 16.4981 12.6938 16.4981 12.6938C16.4981 12.6938 16.4981 12.6938 16.4981 12.6938V12.6938C16.4981 12.6938 16.4981 12.6938 16.4981 12.6938C16.4981 12.6938 16.4981 12.6938 16.4981 12.6938C17.9123 12.69 17.9084 11.2757 17.9084 11.2757C17.9084 11.2757 17.9084 11.2757 17.9084 11.2757C17.9084 11.2757 17.9084 11.2757 17.9084 11.2757C17.9084 11.2757 17.9084 11.2757 17.9084 11.2757C17.9084 11.2757 17.9084 11.2757 17.9084 11.2757C17.9084 11.2757 17.9084 11.2757 17.9084 11.2757C17.9084 11.2757 17.9084 11.2757 17.9084 11.2757C17.9084 11.2757 17.9084 11.2758 17.9084 11.2757C17.9084 11.2757 17.9084 11.2757 17.9084 11.2757C17.9084 11.2757 17.9084 11.2757 17.9084 11.2757C17.9084 11.2757 17.9084 11.2757 17.9084 11.2757C17.9084 11.2757 17.9084 11.2757 17.9084 11.2757V11.2757C17.9084 11.2757 17.9084 11.2757 17.9084 11.2757C17.9084 11.2757 17.9084 11.2757 17.9084 11.2757C17.9084 11.2757 17.9084 11.2758 17.9084 11.2757C17.9084 11.2757 17.9084 11.2757 17.9084 11.2757C17.9084 11.2757 17.9084 11.2758 17.9084 11.2757C17.9084 11.2757 17.9084 11.2757 17.9084 11.2757C17.9084 11.2757 17.9084 11.2757 17.9084 11.2757C17.9084 11.2757 17.9084 11.2757 17.9084 11.2757C17.9084 11.2757 17.9084 11.2757 17.9084 11.2757C17.9084 11.2757 17.9084 11.2757 17.9084 11.2757C17.9084 11.2757 17.9084 11.2757 17.9084 11.2757C17.9084 11.2757 17.9084 11.2757 17.9084 11.2757C17.9084 11.2757 17.9084 11.2757 17.9084 11.2757C17.9084 11.2757 17.9084 11.2757 17.9084 11.2757C17.9084 11.2757 17.9084 11.2757 17.9084 11.2757C17.9084 11.2757 17.9084 11.2757 17.9084 11.2757C17.9084 11.2757 17.9084 11.2757 17.9084 11.2757C17.9084 11.2757 17.9084 11.2757 17.9084 11.2757C17.9084 11.2757 17.9084 11.2757 17.9084 11.2757C17.9084 11.2757 17.9084 11.2757 17.9084 11.2757C17.9084 11.2757 17.9122 12.6899 16.498 12.6938C16.498 12.6938 16.498 12.6938 16.498 12.6938C16.498 12.6938 16.498 12.6938 16.498 12.6938C16.498 12.6938 16.498 12.6938 16.498 12.6938C16.498 12.6938 16.498 12.6938 16.498 12.6938C16.498 12.6938 16.498 12.6938 16.498 12.6938L16.498 12.6938C16.498 12.6938 16.498 12.6938 16.498 12.6938C16.498 12.6938 16.498 12.6938 16.498 12.6938C16.498 12.6938 16.498 12.6938 16.498 12.6938H16.498C16.498 12.6938 16.498 12.6938 16.498 12.6938C16.498 12.6938 16.498 12.6938 16.498 12.6938C16.4981 12.6938 16.498 12.6937 16.498 12.6938L17.9084 11.2757ZM17.8995 11.267C17.8562 11.225 17.8241 11.1915 17.801 11.1658C17.7775 11.1395 17.7676 11.126 17.7661 11.124C17.7639 11.1209 17.7781 11.14 17.7959 11.1791C17.8135 11.2178 17.8426 11.2937 17.8532 11.3995L15.8633 11.5996C15.8945 11.91 16.0394 12.1469 16.1361 12.2829C16.243 12.4332 16.3746 12.5741 16.5069 12.7025L17.8995 11.267ZM17.8532 11.3995C17.8641 11.5079 17.8502 11.5914 17.8392 11.6373C17.8335 11.6612 17.8276 11.679 17.8236 11.69C17.8196 11.7011 17.8168 11.7074 17.8163 11.7083C17.8158 11.7094 17.8214 11.6973 17.8382 11.6701C17.8547 11.6433 17.8785 11.6074 17.912 11.5609L16.2894 10.3916C16.1837 10.5384 16.0795 10.6995 16.0016 10.8676C15.9305 11.0211 15.8316 11.2841 15.8633 11.5996L17.8532 11.3995ZM17.9136 11.5587C18.1679 11.2038 18.4406 10.8459 18.7148 10.4864L17.1245 9.27357C16.8533 9.62915 16.5624 10.0107 16.2878 10.3939L17.9136 11.5587ZM18.7148 10.4864C18.9561 10.17 19.2136 9.83229 19.4617 9.49091L17.8437 8.31523C17.6115 8.63485 17.3679 8.95439 17.1245 9.27362L18.7148 10.4864ZM19.4617 9.49082L19.5156 9.41661L17.8975 8.24112L17.8436 8.31532L19.4617 9.49082ZM19.5156 9.4166C19.9706 8.79035 20.5556 7.99834 20.8718 7.00845L18.9666 6.3999C18.7636 7.03551 18.3797 7.57739 17.8975 8.24113L19.5156 9.4166ZM20.8721 7.00737C20.9537 6.75107 21.1733 6.01187 20.737 5.30069L19.0322 6.34649C19.0171 6.32181 19.0079 6.2966 19.0034 6.27643C18.9992 6.25791 19.0002 6.24948 19 6.25542C18.9997 6.26183 18.9984 6.27752 18.9928 6.30428C18.9871 6.33094 18.9786 6.36222 18.9663 6.40098L20.8721 7.00737ZM20.737 5.30063C20.3017 4.59122 19.543 4.44873 19.2787 4.40398L18.9447 6.37591C18.9855 6.38281 19.0181 6.38971 19.0454 6.39716C19.0728 6.40463 19.0884 6.41097 19.0953 6.4142C19.1018 6.41725 19.0948 6.41486 19.0809 6.40332C19.0657 6.3907 19.0475 6.37142 19.0323 6.34655L20.737 5.30063ZM19.2797 4.40415C19.0715 4.36867 18.8862 4.36807 18.776 4.36807V6.36807C18.8751 6.36807 18.9148 6.37081 18.9437 6.37573L19.2797 4.40415ZM18.7768 4.36807L15.7375 4.36539L15.7358 6.36539L18.7751 6.36807L18.7768 4.36807ZM15.7532 4.36553C15.3254 4.35844 14.8915 4.45677 14.509 4.71582C14.1283 4.97366 13.8762 5.33797 13.7193 5.73093L15.5766 6.47274C15.598 6.41929 15.6165 6.39096 15.6258 6.37867C15.6342 6.36751 15.6361 6.36799 15.6305 6.3718C15.6247 6.37572 15.6228 6.37511 15.6315 6.3728C15.6415 6.37011 15.669 6.36441 15.7201 6.36525L15.7532 4.36553ZM13.7196 5.7303C13.5608 6.12696 13.3862 6.55372 13.1886 6.95046L14.9788 7.84213C15.2163 7.36535 15.4172 6.87128 15.5764 6.47337L13.7196 5.7303ZM13.187 6.95366C12.7795 7.77922 12.3044 8.63708 11.6461 9.332L13.098 10.7075C13.9728 9.78413 14.5555 8.69971 14.9804 7.83893L13.187 6.95366ZM11.6451 9.33299L11.6111 9.36905L13.0649 10.7426L13.0989 10.7065L11.6451 9.33299ZM11.6101 9.37012C11.5965 9.38449 11.5853 9.39639 11.574 9.40814C11.5626 9.41993 11.5546 9.42793 11.5495 9.43284C11.543 9.43916 11.548 9.43388 11.5618 9.4225C11.5691 9.4165 11.5846 9.40414 11.6067 9.38887C11.6181 9.38098 11.6335 9.37083 11.6523 9.35956C11.6708 9.34848 11.6963 9.33417 11.7279 9.31919L12.5855 11.126C12.71 11.0669 12.7998 10.9938 12.8305 10.9686C12.8743 10.9327 12.9121 10.8974 12.9389 10.8715C12.9921 10.8201 13.0426 10.7662 13.0659 10.7415L11.6101 9.37012ZM12.6867 9.37459C12.8103 9.45184 12.8823 9.53748 12.9104 9.57312C12.9436 9.61531 12.9628 9.64873 12.9706 9.663C12.9861 9.69113 12.9883 9.70178 12.9842 9.68959C12.9811 9.68042 12.9788 9.67111 12.9781 9.66746C12.9761 9.65704 12.9835 9.6869 12.9818 9.74643L10.9826 9.69019C10.9757 9.93458 11.0371 10.1746 11.0892 10.329C11.1188 10.417 11.1603 10.5213 11.2169 10.6245C11.2509 10.6864 11.3746 10.913 11.6267 11.0706L12.6867 9.37459ZM12.9818 9.74876C12.9823 9.7318 12.9824 9.71733 12.9824 9.70685H10.9824C10.9824 9.70398 10.9824 9.69712 10.9827 9.68785L12.9818 9.74876ZM12.9824 9.70607L12.9797 6.2133L10.9797 6.21485L10.9824 9.70762L12.9824 9.70607ZM12.9797 6.21408C12.9797 6.14946 12.9751 6.08686 12.967 6.0268L10.9851 6.29514C10.9817 6.27028 10.9797 6.24318 10.9797 6.21408H12.9797ZM12.9668 6.02543C12.9307 5.76121 12.8595 5.30661 12.5771 4.89244C12.2617 4.42979 11.7789 4.14483 11.1746 4.02622L10.7894 5.98878C10.894 6.00931 10.9348 6.03289 10.9404 6.03631C10.9418 6.03719 10.9321 6.03003 10.9246 6.01903C10.9202 6.01265 10.9292 6.02288 10.9427 6.06964C10.9571 6.11965 10.9705 6.18834 10.9853 6.2965L12.9668 6.02543ZM11.1754 4.02637C11.0854 4.00864 10.9947 4 10.9049 4V6C10.8667 6 10.8278 5.99634 10.7887 5.98863L11.1754 4.02637ZM10.9049 4H7.74333V6H10.9049V4ZM7.74333 4C7.28277 4 6.88429 4.10787 6.54149 4.30188C6.21124 4.48879 5.98118 4.72896 5.82304 4.91311L7.34033 6.21611C7.43441 6.10656 7.48778 6.06442 7.52659 6.04245C7.55286 6.02758 7.60908 6 7.74333 6V4ZM5.82074 4.9158C5.79526 4.94568 5.15731 5.6075 5.47131 6.49056L7.35573 5.8205C7.38183 5.89391 7.39043 5.97239 7.38399 6.04559C7.37792 6.11463 7.35988 6.16493 7.34761 6.19267C7.32827 6.23637 7.30735 6.25481 7.34263 6.21343L5.82074 4.9158ZM5.47131 6.49055C5.78403 7.37004 6.68838 7.4873 6.72429 7.49406L7.09432 5.52859C7.05237 5.52069 7.08078 5.52255 7.12286 5.54439C7.1489 5.5579 7.19267 5.58477 7.23897 5.63274C7.28807 5.68362 7.33 5.74814 7.35573 5.8205L5.47131 6.49055ZM6.72381 7.49397C6.73751 7.49655 6.7216 7.49524 6.68911 7.47896C6.65383 7.46128 6.61056 7.43164 6.57046 7.38802C6.48726 7.29748 6.48912 7.22751 6.49807 7.28762L8.47624 6.99292C8.43004 6.68279 8.31524 6.33085 8.04303 6.03467C7.76493 5.73207 7.4165 5.5894 7.09479 5.52867L6.72381 7.49397ZM6.49845 7.29011C6.59285 7.91304 6.60828 8.6009 6.53296 9.47517L8.52558 9.64684C8.6108 8.65761 8.59951 7.80628 8.47587 6.99043L6.49845 7.29011ZM6.53325 9.47188C6.51625 9.66179 6.48985 9.73975 6.4777 9.76834L8.31842 10.5505C8.44064 10.2628 8.49751 9.96053 8.52529 9.65012L6.53325 9.47188ZM6.47761 9.76853C6.48301 9.75583 6.50075 9.71718 6.53802 9.66501L8.16544 10.8276C8.22551 10.7435 8.27592 10.6506 8.3185 10.5503L6.47761 9.76853ZM7.72411 9.3182C7.78248 9.34163 7.81755 9.36407 7.8286 9.37159L6.70337 11.025C6.79285 11.0859 6.88457 11.1363 6.97934 11.1744L7.72411 9.3182ZM7.8286 9.37158C7.76142 9.32587 7.6794 9.2302 7.47937 8.94947L5.85056 10.1101C6.00342 10.3246 6.28632 10.7412 6.70337 11.025L7.8286 9.37158ZM7.47952 8.94968C6.82436 8.0297 6.26727 7.00573 5.77802 5.80928L3.92681 6.56627C4.46749 7.88849 5.09604 9.05056 5.85041 10.1099L7.47952 8.94968ZM5.77736 5.80767C5.43088 4.96454 4.70097 4.39009 3.74517 4.37614L3.71598 6.37593C3.77999 6.37686 3.80488 6.39227 3.8175 6.4014C3.83396 6.41331 3.88062 6.45385 3.92748 6.56788L5.77736 5.80767ZM3.74713 4.37617C2.7627 4.35987 1.85008 4.36023 0.958924 4.37746L0.997592 6.37709C1.86238 6.36037 2.75094 6.35995 3.71402 6.3759L3.74713 4.37617ZM0.960998 4.37743C0.359094 4.38782 -0.321594 4.58834 -0.727807 5.22447L0.95783 6.30087C0.943438 6.32341 0.924596 6.34509 0.903183 6.36314C0.882195 6.38084 0.86528 6.38955 0.858543 6.39256C0.852516 6.39525 0.858429 6.39171 0.881275 6.38728C0.904316 6.38282 0.941485 6.37806 0.995518 6.37713L0.960998 4.37743ZM-0.727964 5.22472C-1.13595 5.86403 -1.02755 6.56807 -0.778984 7.11835L1.0437 6.29504C1.02159 6.2461 1.01021 6.21093 1.00459 6.18878C0.999016 6.16684 0.999847 6.16075 0.999984 6.16821C1.00014 6.17647 0.999308 6.19632 0.991933 6.22355C0.984416 6.25131 0.972458 6.27795 0.957987 6.30062L-0.727964 5.22472ZM-0.778827 7.1187C0.458557 9.8553 1.5989 11.8834 2.91689 13.6596L4.52301 12.4678C3.31599 10.8412 2.24335 8.94821 1.04354 6.2947L-0.778827 7.1187ZM2.91693 13.6597C3.86814 14.9414 4.86185 15.8783 6.04149 16.5496L7.03063 14.8113C6.14565 14.3077 5.34966 13.5817 4.52297 12.4678L2.91693 13.6597ZM6.04152 16.5496C7.29615 17.2635 8.69413 17.6 10.263 17.6L10.2629 15.6C8.99363 15.6 7.9452 15.3317 7.0306 14.8113L6.04152 16.5496ZM10.263 17.6C10.4405 17.6 10.6205 17.5957 10.8022 17.5871L10.7075 15.5893C10.5565 15.5965 10.4081 15.6 10.263 15.6V17.6ZM10.8001 17.5872C11.3345 17.563 11.939 17.4402 12.4007 16.9916C12.869 16.5366 13 15.9333 13.0244 15.3999L11.0265 15.3083C11.0121 15.6229 10.9455 15.6169 11.0071 15.557C11.0622 15.5036 11.0507 15.5738 10.7096 15.5892L10.8001 17.5872ZM13.0243 15.4027C13.0449 14.9784 13.0905 14.8129 13.147 14.7103L11.3958 13.7443C11.1044 14.2726 11.0496 14.8334 11.0266 15.3055L13.0243 15.4027ZM13.1472 14.71C13.1433 14.7171 13.1239 14.7518 13.0801 14.7991C13.0576 14.8233 13.0182 14.8623 12.96 14.9033C12.9051 14.942 12.8043 15.0032 12.6612 15.039L12.1754 13.0989C11.8726 13.1748 11.6853 13.3619 11.6137 13.439C11.5194 13.5408 11.4482 13.6493 11.3957 13.7446L13.1472 14.71ZM12.6592 15.0395C12.517 15.0748 12.4005 15.0681 12.3355 15.06C12.2664 15.0514 12.2149 15.0361 12.1853 15.0259C12.1275 15.006 12.0974 14.9863 12.094 14.9841L13.1793 13.3042C13.0852 13.2434 12.9689 13.1804 12.8361 13.1347C12.7353 13.1 12.4807 13.0231 12.1774 13.0984L12.6592 15.0395ZM12.0941 14.9842C12.1157 14.9981 12.1473 15.0222 12.1897 15.0613C12.232 15.1004 12.2761 15.1461 12.3273 15.2016L13.7985 13.8468C13.6725 13.71 13.4582 13.4843 13.1792 13.3042L12.0941 14.9842ZM12.3264 15.2006C12.4412 15.3256 12.5578 15.4554 12.6751 15.5859L14.1623 14.2486C14.0468 14.1201 13.9227 13.982 13.7994 13.8478L12.3264 15.2006ZM12.6749 15.5856C12.9202 15.8585 13.1918 16.1612 13.4794 16.4525L14.9028 15.0475C14.6536 14.795 14.4128 14.5274 14.1625 14.2488L12.6749 15.5856ZM13.4792 16.4523C14.2662 17.2502 15.2453 17.6701 16.3485 17.5858L16.1962 15.5916C15.7512 15.6256 15.3303 15.4809 14.9031 15.0478L13.4792 16.4523ZM16.2719 17.5887L19.0533 17.59L19.0542 15.59L16.2728 15.5887L16.2719 17.5887ZM19.0538 17.59C19.0538 17.59 19.0538 17.59 19.0538 17.59H19.0538C19.0538 17.59 19.0538 17.59 19.0538 17.59C19.0538 17.59 19.0538 17.59 19.0538 17.59C19.0538 17.59 19.0538 17.59 19.0538 17.59C19.0538 17.59 19.0538 17.59 19.0538 17.59C19.0538 17.59 19.0538 17.59 19.0538 17.59C19.0538 17.59 19.0538 17.59 19.0538 17.59H19.0538C19.0538 17.59 19.0538 17.59 19.0538 17.59C19.0538 17.59 19.0538 17.59 19.0538 17.59C19.0538 17.59 19.0538 17.59 19.0538 17.59C19.0538 17.59 19.0538 17.59 19.0538 17.59C19.0538 17.59 19.0538 17.59 19.0538 17.59C19.0538 17.59 19.0538 16.59 19.0538 15.59H19.0538C19.0538 15.59 19.0538 15.59 19.0538 15.59C19.0538 15.59 19.0538 15.59 19.0538 15.59H19.0538C19.0538 15.59 19.0538 15.59 19.0538 15.59C19.0538 15.59 19.0538 15.59 19.0538 15.59C19.0538 15.59 19.0538 15.59 19.0538 15.59C19.0538 15.59 19.0538 15.59 19.0538 15.59C19.0538 15.59 19.0538 15.59 19.0538 15.59H19.0538C19.0538 15.59 19.0538 15.59 19.0538 15.59C19.0538 15.59 19.0538 15.59 19.0538 15.59H19.0538C19.0538 15.59 19.0538 15.59 19.0538 15.59C19.0538 15.59 19.0538 15.59 19.0538 15.59H19.0538C19.0538 15.59 19.0538 15.59 19.0538 15.59C19.0538 15.59 19.0538 15.59 19.0538 15.59C19.0538 15.59 19.0538 16.59 19.0538 17.59C19.0538 17.59 19.0538 17.59 19.0538 17.59C19.0538 17.59 19.0538 17.59 19.0538 17.59C19.0538 17.59 19.0538 17.59 19.0538 17.59C19.0538 17.59 19.0538 17.59 19.0538 17.59V15.59C19.0538 15.59 19.0538 15.59 19.0538 15.59C19.0538 15.59 19.0538 15.59 19.0538 15.59C19.0538 15.59 19.0538 15.59 19.0538 15.59C19.0538 15.59 19.0538 15.59 19.0538 15.59C19.0538 16.59 19.0538 17.59 19.0538 17.59C19.0538 17.59 19.0538 17.59 19.0538 17.59C19.0538 17.59 19.0538 17.59 19.0538 17.59H19.0538C19.0538 17.59 19.0538 17.59 19.0538 17.59C19.0538 17.59 19.0538 17.59 19.0538 17.59H19.0538C19.0538 17.59 19.0538 17.59 19.0538 17.59C19.0538 17.59 19.0538 17.59 19.0538 17.59H19.0538C19.0538 17.59 19.0538 17.59 19.0538 17.59C19.0538 17.59 19.0538 17.59 19.0538 17.59C19.0538 17.59 19.0538 17.59 19.0538 17.59C19.0538 17.59 19.0538 17.59 19.0538 17.59C19.0538 17.59 19.0538 17.59 19.0538 17.59H19.0538C19.0538 17.59 19.0538 17.59 19.0538 17.59C19.0538 17.59 19.0538 17.59 19.0538 17.59H19.0538C19.0538 16.59 19.0538 15.59 19.0538 15.59C19.0538 15.59 19.0538 15.59 19.0538 15.59C19.0538 15.59 19.0538 15.59 19.0538 15.59C19.0538 15.59 19.0538 15.59 19.0538 15.59C19.0538 15.59 19.0538 15.59 19.0538 15.59C19.0538 15.59 19.0538 15.59 19.0538 15.59H19.0538C19.0538 15.59 19.0538 15.59 19.0538 15.59C19.0538 15.59 19.0538 15.59 19.0538 15.59C19.0538 15.59 19.0538 15.59 19.0538 15.59C19.0538 15.59 19.0538 15.59 19.0538 15.59C19.0538 15.59 19.0538 15.59 19.0538 15.59C19.0538 15.59 19.0538 15.59 19.0538 15.59H19.0538C19.0538 15.59 19.0538 15.59 19.0538 15.59V17.59ZM19.0538 17.59C19.0827 17.59 19.1138 17.5891 19.1463 17.587L19.0145 15.5913C19.0294 15.5904 19.0425 15.59 19.0538 15.59V17.59ZM19.1465 17.587C19.8132 17.5428 20.3873 17.1684 20.7111 16.5982L18.9719 15.6106C18.968 15.6174 18.97 15.6112 18.983 15.6029C18.9888 15.5992 18.9953 15.5962 19.0016 15.5941C19.008 15.592 19.0125 15.5915 19.0143 15.5913L19.1465 17.587ZM20.7111 16.5981C21.0933 15.925 21.0599 15.1259 20.7211 14.4729L18.9458 15.3939C19.0095 15.5168 18.982 15.5929 18.9719 15.6107L20.7111 16.5981ZM20.7204 14.4716C20.459 13.9696 20.1297 13.5555 19.8793 13.2552L18.3434 14.5363C18.5722 14.8105 18.7879 15.0907 18.9465 15.3953L20.7204 14.4716ZM16.2568 14.7963C16.2568 14.7963 16.2568 14.7963 16.2568 14.7963H16.2568C16.2568 14.7963 16.2568 14.7963 16.2568 14.7963H16.2568C16.2568 14.7963 16.2568 14.7963 16.2568 14.7963C16.2568 14.7963 16.2568 14.7963 16.2568 14.7963C16.2568 14.7963 16.2568 14.7963 16.2568 14.7963C16.2568 14.7963 16.2568 14.7963 16.2568 14.7963H16.2568C16.2568 14.7963 16.2568 14.7963 16.2568 14.7963C16.2568 15.7963 16.2568 16.7963 16.2568 16.7963H16.2568C16.2568 16.7963 16.2568 16.7963 16.2568 16.7963H16.2568C16.2568 16.7963 16.2568 16.7963 16.2568 16.7963H16.2568C16.2568 16.7963 16.2568 16.7963 16.2568 16.7963C16.2568 16.7963 16.2568 16.7963 16.2568 16.7963C16.2568 16.7963 16.2568 16.7963 16.2568 16.7963C16.2568 16.7963 16.2568 16.7963 16.2568 16.7963C16.2568 16.7963 16.2568 16.7963 16.2568 16.7963C16.2568 16.7963 16.2568 16.7963 16.2568 16.7963C16.2568 16.7963 16.2568 16.7963 16.2568 16.7963C16.2568 16.7963 16.2568 16.7963 16.2568 16.7963H16.2568C16.2568 16.7963 16.2568 16.7963 16.2568 16.7963H16.2568C16.2568 16.7963 16.2568 16.7963 16.2568 16.7963C16.2568 16.7963 16.2568 16.7963 16.2568 16.7963H16.2568C16.2568 16.7963 16.2568 16.7963 16.2568 16.7963C16.2568 16.7963 16.2568 16.7963 16.2568 16.7963C16.2568 16.7963 16.2568 16.7963 16.2568 16.7963H16.2568C16.2568 16.7963 16.2568 16.7963 16.2568 16.7963C16.2568 16.7963 16.2568 16.7963 16.2568 16.7963H16.2568C16.2568 16.7963 16.2568 16.7963 16.2568 16.7963C16.2568 16.7963 16.2568 16.7963 16.2568 16.7963C16.2568 16.7963 16.2568 16.7963 16.2568 16.7963C16.2568 16.7963 16.2568 16.7963 16.2568 16.7963C16.2568 16.7963 16.2568 15.7963 16.2568 14.7963C16.2568 14.7963 16.2568 14.7963 16.2568 14.7963H16.2568C16.2568 14.7963 16.2568 14.7963 16.2568 14.7963C16.2568 14.7963 16.2568 14.7963 16.2568 14.7963C16.2568 14.7963 16.2568 14.7963 16.2568 14.7963C16.2568 14.7963 16.2568 14.7963 16.2568 14.7963H16.2568H16.2568C16.2568 14.7963 16.2568 14.7963 16.2568 14.7963H16.2568C16.2568 14.7963 16.2568 14.7963 16.2568 14.7963H16.2568H16.2568C16.2568 14.7963 16.2568 14.7963 16.2568 14.7963C16.2568 14.7963 16.2568 14.7963 16.2568 14.7963H16.2568C16.2568 14.7963 16.2568 14.7963 16.2568 14.7963C16.2568 14.7963 16.2568 14.7963 16.2568 14.7963C16.2568 14.7963 16.2568 14.7963 16.2568 14.7963H16.2568V16.7963H16.2568C16.2568 16.7963 16.2568 16.7963 16.2568 16.7963C16.2568 16.7963 16.2568 16.7963 16.2568 16.7963C16.2568 16.7963 16.2568 16.7963 16.2568 16.7963H16.2568C16.2568 16.7963 16.2568 16.7963 16.2568 16.7963C16.2568 16.7963 16.2568 16.7963 16.2568 16.7963H16.2568H16.2568C16.2568 16.7963 16.2568 16.7963 16.2568 16.7963H16.2568C16.2568 16.7963 16.2568 16.7963 16.2568 16.7963H16.2568H16.2568C16.2568 16.7963 16.2568 16.7963 16.2568 16.7963C16.2568 16.7963 16.2568 16.7963 16.2568 16.7963C16.2568 16.7963 16.2568 16.7963 16.2568 16.7963C16.2568 16.7963 16.2568 16.7963 16.2568 16.7963H16.2568C16.2568 16.7963 16.2568 16.7963 16.2568 16.7963C16.2568 15.7963 16.2568 14.7963 16.2568 14.7963C16.2568 14.7963 16.2568 14.7963 16.2568 14.7963C16.2568 14.7963 16.2568 14.7963 16.2568 14.7963C16.2568 14.7963 16.2568 14.7963 16.2568 14.7963C16.2568 14.7963 16.2568 14.7963 16.2568 14.7963H16.2568C16.2568 14.7963 16.2568 14.7963 16.2568 14.7963C16.2568 14.7963 16.2568 14.7963 16.2568 14.7963H16.2568C16.2568 14.7963 16.2568 14.7963 16.2568 14.7963C16.2568 14.7963 16.2568 14.7963 16.2568 14.7963C16.2568 14.7963 16.2568 14.7963 16.2568 14.7963H16.2568C16.2568 14.7963 16.2568 14.7963 16.2568 14.7963C16.2568 14.7963 16.2568 14.7963 16.2568 14.7963H16.2568C16.2568 14.7963 16.2568 14.7963 16.2568 14.7963H16.2568C16.2568 14.7963 16.2568 14.7963 16.2568 14.7963C16.2568 14.7963 16.2568 14.7963 16.2568 14.7963C16.2568 14.7963 16.2568 14.7963 16.2568 14.7963C16.2568 14.7963 16.2568 14.7963 16.2568 14.7963C16.2568 14.7963 16.2568 14.7963 16.2568 14.7963C16.2568 14.7963 16.2568 14.7963 16.2568 14.7963C16.2568 14.7963 16.2568 14.7963 16.2568 14.7963C16.2568 14.7963 16.2568 14.7963 16.2568 14.7963H16.2568C16.2568 14.7963 16.2568 14.7963 16.2568 14.7963H16.2568C16.2568 14.7963 16.2568 14.7963 16.2568 14.7963H16.2568C16.2568 14.7963 16.2568 15.7963 16.2568 16.7963C16.2568 16.7963 16.2568 16.7963 16.2568 16.7963H16.2568C16.2568 16.7963 16.2568 16.7963 16.2568 16.7963C16.2568 16.7963 16.2568 16.7963 16.2568 16.7963C16.2568 16.7963 16.2568 16.7963 16.2568 16.7963C16.2568 16.7963 16.2568 16.7963 16.2568 16.7963H16.2568C16.2568 16.7963 16.2568 16.7963 16.2568 16.7963H16.2568C16.2568 16.7963 16.2568 16.7963 16.2568 16.7963V14.7963ZM15.6936 7.15732C15.7051 7.15768 15.7146 7.15781 15.7209 7.15786C15.7268 7.1579 15.732 7.1579 15.7325 7.1579V5.1579C15.7306 5.1579 15.7333 5.15789 15.7367 5.15792C15.7407 5.15795 15.7477 5.15804 15.7567 5.15832L15.6936 7.15732ZM14.7565 13.7208L14.7481 13.7114L13.2606 15.0483L13.269 15.0576L14.7565 13.7208ZM15.7147 7.15777L15.722 7.15784L15.7431 5.15795L15.7357 5.15788L15.7147 7.15777ZM16.4951 8.78792L16.4896 8.79503L18.0802 10.0075L18.0857 10.0004L16.4951 8.78792ZM16.4951 8.78788C16.4942 8.7891 16.4932 8.79031 16.4923 8.79149C16.4914 8.79268 16.4906 8.79384 16.4897 8.79499L18.0802 10.0075C18.0849 10.0013 18.081 10.0065 18.0856 10.0004L16.4951 8.78788ZM14.7565 13.7208C14.7537 13.7176 14.751 13.7147 14.7481 13.7114L13.2606 15.0483C13.2633 15.0513 13.2663 15.0546 13.269 15.0577L14.7565 13.7208Z" fill="#6202EE" mask="url(#path-1-inside-1)"/>
</svg>
